<?xml version="1.0" encoding="UTF-8"?>
<svg version="1.1" xmlns="http://www.w3.org/2000/svg" width="560" height="140">
<path d="M0 0 C1.25671695 -0.00888242 1.25671695 -0.00888242 2.53882211 -0.01794428 C4.02606641 -0.0288174 5.51328928 -0.04449287 7.00040871 -0.06662041 C12.37441326 -0.09784579 16.82890687 0.83923416 21.72410774 2.98702812 C23.10655448 3.53872678 24.48935481 4.08954043 25.87254524 4.63937187 C27.01981087 5.10472343 28.16707649 5.570075 29.34910774 6.04952812 C30.67285672 6.41909211 32.00209681 6.77667206 33.34910774 7.04952812 C33.34910774 8.03952812 33.34910774 9.02952812 33.34910774 10.04952812 C32.16832649 10.45945 30.98754524 10.86937187 29.77098274 11.29171562 C28.21364222 11.83584665 26.65635325 12.38012522 25.09910774 12.92452812 C24.32180305 13.19394218 23.54449837 13.46335625 22.74363899 13.74093437 C21.61248665 14.13732109 21.61248665 14.13732109 20.45848274 14.54171562 C19.76722298 14.78260918 19.07596321 15.02350273 18.36375618 15.27169609 C16.35587812 15.96729857 16.35587812 15.96729857 14.7580719 17.08353138 C11.16584731 18.52401659 7.60257909 18.31367545 3.79103279 18.28330803 C2.91724381 18.28431131 2.04345484 18.2853146 1.1431874 18.28634828 C-1.79461009 18.28730301 -4.73216987 18.27393921 -7.66993523 18.26070976 C-9.77726482 18.25850788 -11.88459551 18.25720293 -13.99192619 18.25672722 C-18.55127164 18.25378493 -23.11054584 18.24450154 -27.66987038 18.23042297 C-34.977681 18.20797988 -42.28546566 18.20003004 -49.59330559 18.19392204 C-62.59718399 18.18120099 -75.60101766 18.15618711 -88.60487175 18.12856865 C-174.28223777 17.90094335 -174.28223777 17.90094335 -259.95854378 18.25378036 C-263.67769726 18.28328924 -267.39672812 18.30404178 -271.11597633 18.31669617 C-275.37900106 18.33178133 -279.64143728 18.36577194 -283.90419722 18.41531301 C-285.43692678 18.43013845 -286.96973636 18.43845996 -288.50253725 18.43952632 C-296.42307649 18.44962957 -302.87063727 18.54978626 -309.65089226 23.04952812 C-313.78022767 27.28753026 -315.44941516 31.00117763 -316.02589226 36.86202812 C-315.85811184 42.77908428 -313.40140605 47.3438993 -309.21339226 51.42452812 C-304.66520014 54.30874752 -301.05747541 55.2983601 -295.67408562 55.30489922 C-293.90085175 55.3153376 -293.90085175 55.3153376 -292.09179497 55.32598686 C-290.82094551 55.32498985 -289.55009605 55.32399284 -288.24073601 55.32296562 C-286.22552998 55.33806633 -284.21032382 55.3531908 -282.19512844 55.36965179 C-277.24464461 55.40726501 -272.29413451 55.42453604 -267.34351921 55.4303875 C-263.88804272 55.43545452 -260.43311744 55.45996822 -256.97782898 55.49571419 C-255.0461443 55.51005429 -253.11433762 55.50293203 -251.18261528 55.49517632 C-239.0469755 55.62883779 -228.40587682 58.24243055 -219.65089226 67.04952812 C-212.16220382 76.03266973 -210.0364865 84.74066479 -210.30323601 96.32687187 C-211.28300066 106.81805963 -216.03474872 114.63408648 -223.52589226 121.79952812 C-230.48176247 126.80775467 -235.85442703 128.64552413 -244.43165398 128.53536797 C-245.37570595 128.53916466 -246.31975792 128.54296135 -247.29241753 128.54687309 C-250.38881779 128.55423697 -253.48426406 128.53296374 -256.58057976 128.51046562 C-258.73911746 128.50807977 -260.89765726 128.50717618 -263.05619621 128.50768852 C-267.56673602 128.50456824 -272.07695623 128.48805515 -276.5874157 128.46114922 C-282.37817658 128.42704808 -288.16858877 128.41952451 -293.95943832 128.42103958 C-298.40999003 128.42049693 -302.86046503 128.40954863 -307.31099129 128.3950367 C-309.44730487 128.38866119 -311.58362714 128.38472805 -313.71994972 128.38324928 C-316.695618 128.37893121 -319.67090984 128.36146615 -322.64649773 128.34005547 C-323.53376045 128.34096184 -324.42102318 128.34186821 -325.33517265 128.34280205 C-331.42192639 128.27849399 -331.42192639 128.27849399 -333.65089226 126.04952812 C-333.98682976 123.55343437 -333.98682976 123.55343437 -334.02589226 120.61202812 C-334.05425163 119.64394218 -334.08261101 118.67585625 -334.11182976 117.67843437 C-333.65089226 115.04952812 -333.65089226 115.04952812 -332.12446404 113.40926933 C-328.67151949 111.51115946 -325.45237597 111.63364036 -321.61280632 111.6647625 C-320.80577263 111.65938972 -319.99873894 111.65401695 -319.16724968 111.64848137 C-317.41686966 111.63870764 -315.66644121 111.635758 -313.91603661 111.63883781 C-311.14087697 111.64331953 -308.36635384 111.62930395 -305.59126091 111.61044121 C-299.6944818 111.57365525 -293.7977692 111.55995722 -287.90089226 111.54952812 C-281.07959368 111.53743263 -274.25860462 111.51576593 -267.43744469 111.46952629 C-264.71210221 111.4560043 -261.98715573 111.46011911 -259.26179314 111.4649334 C-257.57670917 111.45558595 -255.89162951 111.44541541 -254.20655632 111.43429375 C-253.45614067 111.44044197 -252.70572502 111.44659019 -251.9325695 111.45292473 C-245.4893533 111.3786956 -240.09842795 109.9408057 -234.90089226 105.92452812 C-231.39443039 101.44404907 -228.70896372 96.8369585 -228.58839226 91.04952812 C-230.61064135 85.33964834 -232.75905403 79.775213 -238.15089226 76.54952812 C-243.09454142 74.43082134 -247.30582749 73.92555253 -252.65943718 73.90768242 C-253.84804848 73.90064796 -255.03665977 73.89361351 -256.2612896 73.88636589 C-257.53841316 73.88220161 -258.81553673 73.87803734 -260.13136101 73.87374687 C-261.46790153 73.86330817 -262.80443467 73.85188319 -264.14095879 73.83952141 C-269.79698653 73.78734097 -275.45288112 73.73915471 -281.10914421 73.72360039 C-284.57761537 73.71344097 -288.04548003 73.68391975 -291.51371002 73.64228058 C-293.457648 73.62419995 -295.4017424 73.62660178 -297.34576225 73.62952995 C-307.65049561 73.48843178 -315.73050775 71.54295554 -323.46339226 64.42452812 C-324.77243523 63.26050468 -324.77243523 63.26050468 -326.10792351 62.07296562 C-332.67505608 54.26503841 -334.46755464 47.11819195 -334.27589226 37.04952812 C-334.2952282 36.03374687 -334.31456413 35.01796562 -334.33448601 33.97140312 C-334.27885174 25.29245678 -331.77245134 19.0733691 -326.47511101 12.24484062 C-319.82860102 5.80489493 -313.20016815 0.93891841 -303.5999651 0.91086292 C-302.54962367 0.90538848 -301.49928224 0.89991403 -300.41711229 0.8942737 C-298.68020131 0.89280654 -298.68020131 0.89280654 -296.90820122 0.89130974 C-295.06743203 0.88390277 -295.06743203 0.88390277 -293.1894756 0.87634617 C-289.77631895 0.86361438 -286.3632033 0.85534126 -282.95003235 0.84891951 C-279.27075792 0.84092199 -275.59150429 0.82722059 -271.9122448 0.81420708 C-265.53134055 0.79242515 -259.15043421 0.77428516 -252.76951218 0.75860214 C-243.52412417 0.73587746 -234.27875891 0.70773316 -225.03339017 0.67828286 C-210.00819596 0.63057391 -194.9829923 0.58733173 -179.95777702 0.54684258 C-165.40503476 0.50761778 -150.85230147 0.46619546 -136.2995739 0.42184258 C-135.40547967 0.4191183 -134.51138543 0.41639403 -133.59019744 0.41358721 C-129.99541075 0.40262477 -126.40062411 0.39164579 -122.80583754 0.38064506 C-94.42023547 0.29379369 -66.03462549 0.20969232 -37.64899814 0.13151491 C-35.49965385 0.12556237 -33.35030983 0.11951856 -31.20096588 0.11344528 C-30.51596913 0.11152071 -29.83097238 0.10959615 -29.12521815 0.10761326 C-27.12252981 0.10198397 -25.11984155 0.09632665 -23.11715329 0.0906688 C-19.45228336 0.08116219 -15.78741552 0.07430215 -12.12253952 0.0676384 C-8.08143909 0.05941347 -4.04092315 0.03828043 0 0 Z " fill="#006CFC" transform="translate(351.65089225769043,5.950471878051758)"/>
<path d="M0 0 C5.11150249 0.49827352 9.07189887 2.63308006 13.62890625 4.91015625 C15.02846558 5.59742798 15.02846558 5.59742798 16.45629883 6.29858398 C18.3174266 7.21747052 20.17550693 8.14255881 22.03027344 9.07421875 C24.17308019 10.15016022 26.32431072 11.20515099 28.48046875 12.25390625 C37.08269864 16.60634715 44.27814632 22.09322291 50.31640625 29.66015625 C52.47132957 32.50689546 52.47132957 32.50689546 55.69140625 34.34765625 C59.09755639 36.717152 59.76043436 38.6634736 61.56640625 42.34765625 C62.74119265 43.56835384 63.95270429 44.75436944 65.19140625 45.91015625 C68.00372563 48.57445882 69.44393377 50.30606434 69.56640625 54.34765625 C65.69146969 55.42402752 64.04187698 55.29332576 60.56640625 53.34765625 C60.57800781 54.13011719 60.58960938 54.91257813 60.6015625 55.71875 C60.61058594 56.73066406 60.61960937 57.74257812 60.62890625 58.78515625 C60.64050781 59.79449219 60.65210938 60.80382812 60.6640625 61.84375 C60.56640625 64.34765625 60.56640625 64.34765625 59.56640625 65.34765625 C57.06640625 65.47265625 57.06640625 65.47265625 54.56640625 65.34765625 C54.23640625 65.01765625 53.90640625 64.68765625 53.56640625 64.34765625 C53.63071755 62.5527862 53.76780611 60.76026847 53.94140625 58.97265625 C54.03164063 57.99554688 54.121875 57.0184375 54.21484375 56.01171875 C54.56640625 53.34765625 54.56640625 53.34765625 55.56640625 50.34765625 C54.63828125 50.03828125 53.71015625 49.72890625 52.75390625 49.41015625 C50.69140625 48.72265625 48.62890625 48.03515625 46.56640625 47.34765625 C46.1075 47.97414062 45.64859375 48.600625 45.17578125 49.24609375 C44.5621875 50.06335937 43.94859375 50.880625 43.31640625 51.72265625 C42.713125 52.53476562 42.10984375 53.346875 41.48828125 54.18359375 C39.58011235 56.33222296 38.27003485 57.42037867 35.56640625 58.34765625 C34.57640625 57.85265625 34.57640625 57.85265625 33.56640625 57.34765625 C33.72625 57.87101562 33.88609375 58.394375 34.05078125 58.93359375 C36.11650869 68.60495406 35.17427083 79.18422092 30.16015625 87.75 C24.5266974 95.73516219 17.01625566 100.15001685 7.56640625 102.34765625 C4.85052098 102.62695655 2.17001595 102.67305138 -0.55859375 102.66015625 C-1.24824219 102.67626953 -1.93789063 102.69238281 -2.6484375 102.70898438 C-7.10611176 102.71324601 -9.85752021 102.01284313 -13.43359375 99.34765625 C-15.18365646 97.59759354 -14.58839128 95.15271834 -14.6105957 92.77392578 C-14.62343094 91.58243927 -14.63626617 90.39095276 -14.64949036 89.1633606 C-14.65687729 87.86550629 -14.66426422 86.56765198 -14.671875 85.23046875 C-14.67595053 84.57317654 -14.68002605 83.91588432 -14.68422508 83.23867416 C-14.70510093 79.75986798 -14.71939608 76.28110142 -14.72875977 72.80224609 C-14.73982855 69.20499321 -14.77422821 65.60835823 -14.81393147 62.01132393 C-14.84005183 59.24896071 -14.84844743 56.48674573 -14.85204124 53.72426987 C-14.85929321 51.75270548 -14.8857524 49.7812422 -14.91242981 47.80984497 C-14.90950424 46.61205414 -14.90657867 45.41426331 -14.90356445 44.18017578 C-14.90943069 43.12396027 -14.91529694 42.06774475 -14.92134094 40.97952271 C-14.43359375 38.34765625 -14.43359375 38.34765625 -12.55656433 36.5151062 C-10.07731125 35.15173173 -8.24790225 34.85321095 -5.43359375 34.66015625 C-4.58796875 34.59441406 -3.74234375 34.52867188 -2.87109375 34.4609375 C-0.72724217 34.36130337 1.42024071 34.34765625 3.56640625 34.34765625 C3.32921875 33.78046875 3.09203125 33.21328125 2.84765625 32.62890625 C2.56640625 30.34765625 2.56640625 30.34765625 4.03515625 28.12890625 C5.38932292 26.60807292 6.74348958 25.08723958 8.09765625 23.56640625 C9.73878365 21.5212513 9.73878365 21.5212513 9.59375 19.40625 C8.09476173 16.40257389 5.95658547 14.31798512 3.62890625 11.91015625 C0.35070831 8.51875435 -1.99534483 5.8760857 -3.43359375 1.34765625 C-2.43359375 0.34765625 -2.43359375 0.34765625 0 0 Z M2.56640625 53.34765625 C2.56640625 64.23765625 2.56640625 75.12765625 2.56640625 86.34765625 C8.63469647 85.13399821 11.89606224 83.33401129 15.87890625 78.59765625 C18.63618857 73.28733474 19.29268272 68.81396759 17.50390625 63.16015625 C15.6509774 58.90093518 13.48901217 56.83700232 9.56640625 54.34765625 C7.25640625 54.01765625 4.94640625 53.68765625 2.56640625 53.34765625 Z " fill="#414142" transform="translate(450.43359375,9.65234375)"/>
<path d="M0 0 C6.19769267 3.93637237 10.53352943 9.41339287 12.375 16.5 C13.07285965 24.31240279 13.07193208 31.48857709 9.375 38.5 C7 41.25 7 41.25 4.375 43.5 C3.570625 44.221875 2.76625 44.94375 1.9375 45.6875 C-4.58013294 50.29753306 -11.9347485 50.24689493 -19.625 49.5 C-26.05743672 47.73442019 -32.18948758 44.25569672 -35.87890625 38.56640625 C-38.93699807 32.58874246 -39.06985782 27.1110815 -38.625 20.5 C-40.60456441 20.64033111 -42.58365141 20.7874123 -44.5625 20.9375 C-45.66464844 21.01871094 -46.76679688 21.09992188 -47.90234375 21.18359375 C-50.53609903 21.20418084 -50.53609903 21.20418084 -51.625 22.5 C-51.78325258 24.49782126 -51.87619171 26.50088834 -51.94140625 28.50390625 C-51.98330078 29.71884766 -52.02519531 30.93378906 -52.06835938 32.18554688 C-52.10767578 33.46494141 -52.14699219 34.74433594 -52.1875 36.0625 C-52.23068359 37.34576172 -52.27386719 38.62902344 -52.31835938 39.95117188 C-52.42484719 43.13397445 -52.52546421 46.31697243 -52.625 49.5 C-58.895 49.5 -65.165 49.5 -71.625 49.5 C-71.68558594 47.19644531 -71.74617187 44.89289063 -71.80859375 42.51953125 C-71.87073023 40.24224675 -71.93397244 37.96499539 -71.99731445 35.68774414 C-72.04013188 34.12755394 -72.08183347 32.56733265 -72.12231445 31.00708008 C-72.3705251 21.47395253 -72.77243136 12.00169438 -73.625 2.5 C-67.55147588 1.29339827 -61.83063392 0.22419405 -55.625 0.5 C-54.965 1.82 -54.305 3.14 -53.625 4.5 C-52.820625 4.005 -52.01625 3.51 -51.1875 3 C-46.80497546 1.15472651 -43.30184769 1.21938914 -38.625 1.5 C-37.36262269 4.02475462 -37.52643596 5.81200466 -37.5625 8.625 C-37.57152344 9.53507812 -37.58054688 10.44515625 -37.58984375 11.3828125 C-37.60144531 12.08148438 -37.61304688 12.78015625 -37.625 13.5 C-37.109375 12.46875 -36.59375 11.4375 -36.0625 10.375 C-29.11092512 -1.77793056 -12.66332434 -5.64479546 0 0 Z M-19 16.0625 C-21.17207763 19.32061644 -21.55760614 21.59115592 -21.625 25.5 C-20.10983372 29.51519063 -19.2194747 31.10368353 -15.625 33.5 C-10.74440286 33.34478793 -10.74440286 33.34478793 -6.75 30.8125 C-5.332905 27.8995825 -4.7550713 25.75178241 -4.625 22.5 C-5.94992976 19.21922154 -7.125036 16.999964 -9.625 14.5 C-13.45459591 14.07448934 -15.73289095 13.91308615 -19 16.0625 Z " fill="#464646" transform="translate(280.625,62.5)"/>
<path d="M0 0 C0.66 1.32 1.32 2.64 2 4 C2.886875 3.34 3.77375 2.68 4.6875 2 C10.63305977 -1.3836519 17.92271946 -1.05903391 24.40625 0.625 C30.94474645 3.44158309 34.66794413 8.8515043 37.375 15.25 C39.18323052 26.09938315 37.97647783 34.46721499 32.25 43.875 C25.8451394 49.92403501 19.93773257 50.43150753 11.26953125 50.3359375 C8.12877406 50.01323126 5.84028221 49.33723268 3 48 C3.01160156 49.14339844 3.02320313 50.28679687 3.03515625 51.46484375 C3.04453288 52.95572754 3.05363321 54.44661309 3.0625 55.9375 C3.07087891 56.69224609 3.07925781 57.44699219 3.08789062 58.22460938 C3.09652441 60.14994313 3.05224333 62.07535581 3 64 C1.1144747 65.8855253 -1.57768831 65.13246689 -4.08203125 65.13671875 C-5.27892578 65.13091797 -5.27892578 65.13091797 -6.5 65.125 C-7.29792969 65.12886719 -8.09585938 65.13273437 -8.91796875 65.13671875 C-14.87339233 65.12660767 -14.87339233 65.12660767 -16 64 C-16.11714117 62.56556345 -16.16723105 61.12556356 -16.18945312 59.68652344 C-16.20617065 58.76756287 -16.22288818 57.84860229 -16.2401123 56.90179443 C-16.26047546 55.39579681 -16.26047546 55.39579681 -16.28125 53.859375 C-16.29965942 52.82621155 -16.31806885 51.7930481 -16.33703613 50.72857666 C-16.39598326 47.40244444 -16.44859771 44.07625682 -16.5 40.75 C-16.70959407 21.84890006 -16.70959407 21.84890006 -18 3 C-11.90477286 0.47571401 -6.60105452 -0.13202109 0 0 Z M4.625 17.5625 C2.45292237 20.82061644 2.06739386 23.09115592 2 27 C3.54795867 31.32393774 3.54795867 31.32393774 7 34 C12.34523353 34.61034968 12.34523353 34.61034968 17 32.5625 C18.52033586 28.66663935 18.64517969 25.12035211 18 21 C16.65021698 17.83178767 16.65021698 17.83178767 14 16 C10.05974542 15.3667448 7.98693999 15.35069737 4.625 17.5625 Z " fill="#464646" transform="translate(168,47)"/>
<path d="M0 0 C1.22052063 -0.0049926 1.22052063 -0.0049926 2.46569824 -0.01008606 C4.1872501 -0.015152 5.90881179 -0.01749449 7.63037109 -0.01733398 C10.27067123 -0.01952248 12.91055497 -0.03768692 15.55078125 -0.05664062 C17.22135273 -0.05957416 18.89192621 -0.06155922 20.5625 -0.0625 C21.35523315 -0.06968552 22.14796631 -0.07687103 22.96472168 -0.08427429 C28.55242318 -0.06085807 28.55242318 -0.06085807 30.78125 2.16796875 C31.08203125 4.62890625 31.08203125 4.62890625 31.09375 7.54296875 C31.11050781 8.49945313 31.12726563 9.4559375 31.14453125 10.44140625 C30.71632898 13.65522547 30.02411878 14.85316235 27.78125 17.16796875 C25.42114258 17.62207031 25.42114258 17.62207031 22.67578125 17.55859375 C21.20141602 17.53925781 21.20141602 17.53925781 19.69726562 17.51953125 C18.67310547 17.48601563 17.64894531 17.4525 16.59375 17.41796875 C15.04010742 17.39089844 15.04010742 17.39089844 13.45507812 17.36328125 C10.89620716 17.31611312 8.33919158 17.25030932 5.78125 17.16796875 C5.78125 20.13796875 5.78125 23.10796875 5.78125 26.16796875 C7.89466797 26.09835938 7.89466797 26.09835938 10.05078125 26.02734375 C11.89841634 25.98982832 13.7460743 25.95342791 15.59375 25.91796875 C16.52251953 25.88445312 17.45128906 25.8509375 18.40820312 25.81640625 C19.7472168 25.79707031 19.7472168 25.79707031 21.11328125 25.77734375 C21.93546143 25.75639648 22.7576416 25.73544922 23.60473633 25.71386719 C25.78125 26.16796875 25.78125 26.16796875 27.54589844 28.04003906 C29.02459628 30.58713994 29.21428012 32.23572695 29.21875 35.16796875 C29.23808594 36.01359375 29.25742187 36.85921875 29.27734375 37.73046875 C28.78125 40.16796875 28.78125 40.16796875 27.36328125 42.46484375 C23.39988446 45.07912665 19.66349802 44.59586897 15.03125 44.41796875 C13.69900391 44.39089844 13.69900391 44.39089844 12.33984375 44.36328125 C10.15254152 44.31624249 7.96745184 44.25053884 5.78125 44.16796875 C5.78125 46.47796875 5.78125 48.78796875 5.78125 51.16796875 C6.43198486 51.1522583 7.08271973 51.13654785 7.75317383 51.12036133 C10.69994424 51.05802226 13.64657598 51.01898191 16.59375 50.98046875 C17.61791016 50.95533203 18.64207031 50.93019531 19.69726562 50.90429688 C21.17163086 50.88979492 21.17163086 50.88979492 22.67578125 50.875 C23.58175049 50.85928955 24.48771973 50.8435791 25.42114258 50.82739258 C27.78125 51.16796875 27.78125 51.16796875 29.54956055 52.4440918 C31.62780667 55.35281249 31.80159327 58.68926972 31.78125 62.16796875 C30.50852273 66.44069602 30.50852273 66.44069602 28.78125 68.16796875 C26.1617632 68.29378647 23.57008026 68.35662361 20.94921875 68.37109375 C20.16106277 68.37679382 19.3729068 68.3824939 18.56086731 68.3883667 C16.88881783 68.39783193 15.21674958 68.4043567 13.54467773 68.40820312 C10.98973806 68.41788918 8.43560935 68.44888903 5.88085938 68.48046875 C4.25781729 68.48700055 2.63476943 68.49225033 1.01171875 68.49609375 C0.24804489 68.50844055 -0.51562897 68.52078735 -1.30244446 68.5335083 C-4.43946942 68.52038184 -6.83524981 68.35691219 -9.6706543 66.95996094 C-12.628325 63.53632066 -12.34624272 59.07294831 -12.36401367 54.72265625 C-12.37039352 53.65805176 -12.37677338 52.59344727 -12.38334656 51.49658203 C-12.38445938 50.35688965 -12.3855722 49.21719727 -12.38671875 48.04296875 C-12.39004715 46.86331543 -12.39337555 45.68366211 -12.39680481 44.46826172 C-12.40186195 41.97689198 -12.40421351 39.48551549 -12.40405273 36.99414062 C-12.40624184 33.18217856 -12.4244179 29.37050473 -12.44335938 25.55859375 C-12.446293 23.13671974 -12.448278 20.71484435 -12.44921875 18.29296875 C-12.45640427 17.15327637 -12.46358978 16.01358398 -12.47099304 14.83935547 C-12.4663781 13.24244873 -12.4663781 13.24244873 -12.46166992 11.61328125 C-12.46309494 10.68016113 -12.46451996 9.74704102 -12.46598816 8.78564453 C-12.19295607 5.89487115 -11.51390072 3.76122614 -10.21875 1.16796875 C-7.01175212 -0.43553019 -3.52273791 0.00494515 0 0 Z " fill="#FCFDFF" transform="translate(397.21875,43.83203125)"/>
<path d="M0 0 C5.61 0 11.22 0 17 0 C16.97679687 1.6396875 16.95359375 3.279375 16.9296875 4.96875 C16.91091958 7.14582876 16.89272048 9.32291247 16.875 11.5 C16.85824219 12.57765625 16.84148437 13.6553125 16.82421875 14.765625 C16.7868857 20.88824592 17.19396633 26.14105614 19 32 C23.561241 32.43443275 23.561241 32.43443275 27.69848633 30.90307617 C29.62277864 28.0893717 29.43785026 25.74645798 29.51171875 22.36328125 C29.54716797 21.06455078 29.58261719 19.76582031 29.61914062 18.42773438 C29.6422405 17.05599483 29.6650229 15.6842499 29.6875 14.3125 C29.72067542 12.92900393 29.75516531 11.54553871 29.79101562 10.16210938 C29.8736273 6.77503067 29.93848572 3.38752754 30 0 C36.27 0 42.54 0 49 0 C49 15.84 49 31.68 49 48 C43.06 48 37.12 48 31 48 C30.67 46.35 30.34 44.7 30 43 C29.14341797 43.54140625 29.14341797 43.54140625 28.26953125 44.09375 C21.30778947 48.0782127 14.97674606 49.25453411 7 48 C2.89291765 45.96090004 1.01711562 44.13508702 -1 40 C-2.75388606 34.62745097 -2.18596225 28.79391231 -2.18530273 23.21044922 C-2.18748547 21.13878721 -2.2056516 19.06766142 -2.22460938 16.99609375 C-2.22654297 15.67996094 -2.22847656 14.36382812 -2.23046875 13.0078125 C-2.23457764 11.80785645 -2.23868652 10.60790039 -2.24291992 9.37158203 C-2 6 -2 6 0 0 Z " fill="#484848" transform="translate(297,64)"/>
<path d="M0 0 C8.85032267 3.04626491 14.82041354 7.56703335 18.99609375 16.03125 C22.69510812 25.3808277 22.05614502 35.50222572 18.1875 44.6953125 C14.1028704 52.70386496 7.44710405 57.05626366 -0.94140625 59.84375 C-9.29134663 62.08491498 -13.92883 61.49199697 -22.00390625 58.03125 C-22.00390625 38.89125 -22.00390625 19.75125 -22.00390625 0.03125 C-14.71620693 -3.61259966 -7.67717671 -2.11244608 0 0 Z M-8.00390625 14.03125 C-8.00390625 24.92125 -8.00390625 35.81125 -8.00390625 47.03125 C-1.93561603 45.81759196 1.32574974 44.01760504 5.30859375 39.28125 C8.06587607 33.97092849 8.72237022 29.49756134 6.93359375 23.84375 C5.0806649 19.58452893 2.91869967 17.52059607 -1.00390625 15.03125 C-3.31390625 14.70125 -5.62390625 14.37125 -8.00390625 14.03125 Z " fill="#FBFDFE" transform="translate(461.00390625,48.96875)"/>
<path d="M0 0 C6.27 0 12.54 0 19 0 C19 5.94 19 11.88 19 18 C21.64 18 24.28 18 27 18 C27 24.6 27 31.2 27 38 C24.36 38 21.72 38 19 38 C19.46954015 41.44107712 19.46954015 41.44107712 21 45 C23.31 45.99 25.62 46.98 28 48 C28 54.6 28 61.2 28 68 C18.9299416 68 12.30292514 66.28634986 5.61541748 59.94734192 C-0.04539566 53.12338535 -0.57079814 44.1211501 -0.390625 35.64453125 C-0.38496521 34.61688156 -0.37930542 33.58923187 -0.37347412 32.53044128 C-0.35131943 29.29062674 -0.30116354 26.05197275 -0.25 22.8125 C-0.22990795 20.59832341 -0.21166196 18.38412926 -0.1953125 16.16992188 C-0.1515234 10.77950976 -0.08264358 5.38995071 0 0 Z " fill="#474747" transform="translate(350,44)"/>
<path d="M0 0 C1.22052063 -0.0049926 1.22052063 -0.0049926 2.46569824 -0.01008606 C4.1872501 -0.015152 5.90881179 -0.01749449 7.63037109 -0.01733398 C10.27067123 -0.01952248 12.91055497 -0.03768692 15.55078125 -0.05664062 C17.22135273 -0.05957416 18.89192621 -0.06155922 20.5625 -0.0625 C21.35523315 -0.06968552 22.14796631 -0.07687103 22.96472168 -0.08427429 C28.55242318 -0.06085807 28.55242318 -0.06085807 30.78125 2.16796875 C31.08203125 4.62890625 31.08203125 4.62890625 31.09375 7.54296875 C31.11050781 8.49945313 31.12726563 9.4559375 31.14453125 10.44140625 C30.71632898 13.65522547 30.02411878 14.85316235 27.78125 17.16796875 C25.42114258 17.62207031 25.42114258 17.62207031 22.67578125 17.55859375 C21.20141602 17.53925781 21.20141602 17.53925781 19.69726562 17.51953125 C18.67310547 17.48601563 17.64894531 17.4525 16.59375 17.41796875 C15.04010742 17.39089844 15.04010742 17.39089844 13.45507812 17.36328125 C10.89620716 17.31611312 8.33919158 17.25030932 5.78125 17.16796875 C5.78125 20.13796875 5.78125 23.10796875 5.78125 26.16796875 C7.89466797 26.09835938 7.89466797 26.09835938 10.05078125 26.02734375 C11.89841634 25.98982832 13.7460743 25.95342791 15.59375 25.91796875 C16.52251953 25.88445312 17.45128906 25.8509375 18.40820312 25.81640625 C19.7472168 25.79707031 19.7472168 25.79707031 21.11328125 25.77734375 C21.93546143 25.75639648 22.7576416 25.73544922 23.60473633 25.71386719 C25.78125 26.16796875 25.78125 26.16796875 27.54589844 28.04003906 C29.02459628 30.58713994 29.21428012 32.23572695 29.21875 35.16796875 C29.23808594 36.01359375 29.25742187 36.85921875 29.27734375 37.73046875 C28.78125 40.16796875 28.78125 40.16796875 27.36328125 42.46484375 C23.39988446 45.07912665 19.66349802 44.59586897 15.03125 44.41796875 C13.69900391 44.39089844 13.69900391 44.39089844 12.33984375 44.36328125 C10.15254152 44.31624249 7.96745184 44.25053884 5.78125 44.16796875 C5.78125 46.47796875 5.78125 48.78796875 5.78125 51.16796875 C6.43198486 51.1522583 7.08271973 51.13654785 7.75317383 51.12036133 C10.69994424 51.05802226 13.64657598 51.01898191 16.59375 50.98046875 C17.61791016 50.95533203 18.64207031 50.93019531 19.69726562 50.90429688 C21.17163086 50.88979492 21.17163086 50.88979492 22.67578125 50.875 C23.58175049 50.85928955 24.48771973 50.8435791 25.42114258 50.82739258 C27.78125 51.16796875 27.78125 51.16796875 29.54956055 52.4440918 C31.62780667 55.35281249 31.80159327 58.68926972 31.78125 62.16796875 C30.50852273 66.44069602 30.50852273 66.44069602 28.78125 68.16796875 C26.1617632 68.29378647 23.57008026 68.35662361 20.94921875 68.37109375 C20.16106277 68.37679382 19.3729068 68.3824939 18.56086731 68.3883667 C16.88881783 68.39783193 15.21674958 68.4043567 13.54467773 68.40820312 C10.98973806 68.41788918 8.43560935 68.44888903 5.88085938 68.48046875 C4.25781729 68.48700055 2.63476943 68.49225033 1.01171875 68.49609375 C0.24804489 68.50844055 -0.51562897 68.52078735 -1.30244446 68.5335083 C-4.43946942 68.52038184 -6.83524981 68.35691219 -9.6706543 66.95996094 C-12.628325 63.53632066 -12.34624272 59.07294831 -12.36401367 54.72265625 C-12.37039352 53.65805176 -12.37677338 52.59344727 -12.38334656 51.49658203 C-12.38445938 50.35688965 -12.3855722 49.21719727 -12.38671875 48.04296875 C-12.39004715 46.86331543 -12.39337555 45.68366211 -12.39680481 44.46826172 C-12.40186195 41.97689198 -12.40421351 39.48551549 -12.40405273 36.99414062 C-12.40624184 33.18217856 -12.4244179 29.37050473 -12.44335938 25.55859375 C-12.446293 23.13671974 -12.448278 20.71484435 -12.44921875 18.29296875 C-12.45640427 17.15327637 -12.46358978 16.01358398 -12.47099304 14.83935547 C-12.4663781 13.24244873 -12.4663781 13.24244873 -12.46166992 11.61328125 C-12.46309494 10.68016113 -12.46451996 9.74704102 -12.46598816 8.78564453 C-12.19295607 5.89487115 -11.51390072 3.76122614 -10.21875 1.16796875 C-7.01175212 -0.43553019 -3.52273791 0.00494515 0 0 Z M-9.21875 5.16796875 C-9.32291471 6.93167237 -9.35728807 8.69954446 -9.36401367 10.46630859 C-9.37358345 12.16344498 -9.37358345 12.16344498 -9.38334656 13.89486694 C-9.38445938 15.12709991 -9.3855722 16.35933289 -9.38671875 17.62890625 C-9.39004715 18.88555084 -9.39337555 20.14219543 -9.39680481 21.43692017 C-9.40187981 24.10186285 -9.40464411 26.76670364 -9.40405273 29.43164062 C-9.4039512 32.84709809 -9.4175911 36.26234724 -9.43482494 39.67775536 C-9.44861863 42.93229794 -9.44803381 46.18683838 -9.44921875 49.44140625 C-9.45640427 50.66959076 -9.46358978 51.89777527 -9.47099304 53.16317749 C-9.46791641 54.30090607 -9.46483978 55.43863464 -9.46166992 56.61083984 C-9.46309494 57.61376068 -9.46451996 58.61668152 -9.46598816 59.6499939 C-9.39393431 62.41515845 -9.39393431 62.41515845 -7.21875 65.16796875 C-3.68048745 66.3473896 -0.87726274 66.28086064 2.85546875 66.265625 C3.5393013 66.26421005 4.22313385 66.2627951 4.9276886 66.26133728 C7.10808722 66.25574751 9.28838251 66.24319697 11.46875 66.23046875 C12.94856622 66.22545242 14.42838406 66.22088975 15.90820312 66.21679688 C19.53258557 66.20578146 23.1569077 66.18852387 26.78125 66.16796875 C29.08107545 62.17631769 28.71617352 59.67260028 27.78125 55.16796875 C26.74332228 53.9061578 26.74332228 53.9061578 24.46459961 54.05444336 C22.96425171 54.06229858 22.96425171 54.06229858 21.43359375 54.0703125 C20.35400391 54.07353516 19.27441406 54.07675781 18.16210938 54.08007812 C16.45764648 54.09264648 16.45764648 54.09264648 14.71875 54.10546875 C13.00848633 54.11223633 13.00848633 54.11223633 11.26367188 54.11914062 C8.43617582 54.13097115 5.60870655 54.14890725 2.78125 54.16796875 C2.78125 49.87796875 2.78125 45.58796875 2.78125 41.16796875 C10.04125 41.16796875 17.30125 41.16796875 24.78125 41.16796875 C25.90381131 38.92284613 25.91538762 37.65340226 25.90625 35.16796875 C25.90882813 34.46671875 25.91140625 33.76546875 25.9140625 33.04296875 C25.89502236 31.076431 25.89502236 31.076431 24.78125 29.16796875 C17.52125 29.16796875 10.26125 29.16796875 2.78125 29.16796875 C2.78125 24.21796875 2.78125 19.26796875 2.78125 14.16796875 C10.70125 14.16796875 18.62125 14.16796875 26.78125 14.16796875 C29.05032773 9.62981329 28.78335012 7.99626933 27.78125 3.16796875 C25.3698898 0.75660855 19.63909085 1.99474724 16.2734375 1.98242188 C15.57702148 1.98250244 14.88060547 1.98258301 14.16308594 1.98266602 C12.05382742 1.98049202 9.9451025 1.96237644 7.8359375 1.94335938 C6.48958512 1.94042294 5.14323026 1.93843982 3.796875 1.9375 C2.57258789 1.93339111 1.34830078 1.92928223 0.08691406 1.92504883 C-3.34999526 2.17761344 -6.68320658 2.63242533 -9.21875 5.16796875 Z " fill="#056EFF" transform="translate(397.21875,43.83203125)"/>
<path d="M0 0 C1.10794922 -0.00630432 2.21589844 -0.01260864 3.35742188 -0.019104 C5.1450293 -0.01303131 5.1450293 -0.01303131 6.96875 -0.00683594 C8.19658203 -0.00874939 9.42441406 -0.01066284 10.68945312 -0.01263428 C13.28515834 -0.01399514 15.88087037 -0.0103056 18.4765625 -0.00195312 C22.45328028 0.00874744 26.42954629 -0.00185211 30.40625 -0.01464844 C32.92708433 -0.01332683 35.44791838 -0.0107644 37.96875 -0.00683594 C39.16048828 -0.0108844 40.35222656 -0.01493286 41.58007812 -0.019104 C42.68802734 -0.01279968 43.79597656 -0.00649536 44.9375 0 C46.39833008 0.00238678 46.39833008 0.00238678 47.88867188 0.00482178 C50.54630223 0.26642284 52.1907191 0.90402297 54.46875 2.25878906 C54.21313677 4.60191036 53.87604228 6.93722309 53.46875 9.25878906 C50.86756902 10.55937955 48.96960985 10.38586418 46.05688477 10.38818359 C44.92553604 10.39133575 43.79418732 10.39448792 42.6285553 10.3977356 C40.78794777 10.39469925 40.78794777 10.39469925 38.91015625 10.39160156 C37.02731178 10.39303665 37.02731178 10.39303665 35.10643005 10.39450073 C32.44746479 10.39518233 29.78859092 10.39382877 27.12963867 10.38916016 C23.7221156 10.38346876 20.31467139 10.38673914 16.90715122 10.39273262 C13.65815008 10.397217 10.40915843 10.39407604 7.16015625 10.39160156 C5.9351088 10.39362579 4.71006134 10.39565002 3.44789124 10.3977356 C2.31339035 10.39458344 1.17888947 10.39143127 0.01000977 10.38818359 C-0.98989487 10.387388 -1.9897995 10.38659241 -3.02000427 10.38577271 C-5.53125 10.25878906 -5.53125 10.25878906 -8.53125 9.25878906 C-8.86125 6.94878906 -9.19125 4.63878906 -9.53125 2.25878906 C-6.25108539 0.30804477 -3.79239952 0.00619622 0 0 Z " fill="#4C4B49" transform="translate(56.53125,46.7412109375)"/>
<path d="M0 0 C0.70894409 -0.00335861 1.41788818 -0.00671722 2.14831543 -0.01017761 C4.50327279 -0.01971449 6.85815927 -0.02163209 9.21313477 -0.02270508 C10.84359263 -0.02591578 12.4740502 -0.0292797 14.10450745 -0.03279114 C17.52687244 -0.03878927 20.94921215 -0.04063034 24.37158203 -0.04003906 C28.76463334 -0.0399374 33.15752315 -0.05359026 37.55053616 -0.07081127 C40.91934458 -0.08191056 44.28811371 -0.08395891 47.65693855 -0.08342934 C49.27691263 -0.08461256 50.89688762 -0.0890534 52.5168438 -0.0967617 C54.77957456 -0.10652 57.04195147 -0.10370026 59.3046875 -0.09765625 C60.59406723 -0.09908127 61.88344696 -0.10050629 63.2118988 -0.10197449 C66.21704102 0.14526367 66.21704102 0.14526367 68.21704102 2.14526367 C67.84204102 5.27026367 67.84204102 5.27026367 67.21704102 8.14526367 C57.5859139 8.16838832 47.95479627 8.18617938 38.3236475 8.19707584 C33.85198553 8.20230441 29.38034248 8.20940156 24.90869141 8.22070312 C20.59692129 8.23153296 16.28516943 8.23754071 11.97338676 8.24014091 C10.32467804 8.24199499 8.67597036 8.24561527 7.02726936 8.25099373 C4.7260023 8.25820545 2.42481162 8.25925456 0.12353516 8.25878906 C-1.845037 8.26211998 -1.845037 8.26211998 -3.8533783 8.26551819 C-6.78295898 8.14526367 -6.78295898 8.14526367 -7.78295898 7.14526367 C-7.90795898 4.14526367 -7.90795898 4.14526367 -7.78295898 1.14526367 C-5.88295499 -0.75474032 -2.51981438 0.00745394 0 0 Z " fill="#414141" transform="translate(42.782958984375,103.854736328125)"/>
<path d="M0 0 C1.26859863 0.00142502 2.53719727 0.00285004 3.84423828 0.00431824 C4.54357483 0.00241989 5.24291138 0.00052155 5.96343994 -0.00143433 C8.28059007 -0.00514618 10.59742839 0.00556782 12.91455078 0.01676941 C14.52115848 0.01796111 16.12776688 0.01841439 17.734375 0.01815796 C21.10372267 0.01972354 24.47296419 0.02801875 27.84228516 0.04142761 C32.16688904 0.05841756 36.49137618 0.06224198 40.81600952 0.06148243 C44.13420736 0.06175403 47.45237953 0.06723355 50.77056885 0.07448387 C52.3654155 0.07767195 53.96026507 0.07963827 55.55511475 0.08037758 C57.78174823 0.08253967 60.00825657 0.09128105 62.23486328 0.10197449 C64.13776123 0.10769218 64.13776123 0.10769218 66.07910156 0.11352539 C69.03955078 0.24723816 69.03955078 0.24723816 71.03955078 1.24723816 C71.08209434 3.24678562 71.08035861 5.24765452 71.03955078 7.24723816 C69.12748776 9.15930118 65.67828694 8.37509581 63.14892578 8.37663269 C62.42862183 8.37838501 61.70831787 8.38013733 60.96618652 8.38194275 C58.57395044 8.38636104 56.18178768 8.38342337 53.78955078 8.38005066 C52.1342772 8.38072371 50.47900371 8.38169374 48.82373047 8.38294983 C45.35008811 8.38442677 41.87647142 8.38227237 38.40283203 8.37760925 C33.9402258 8.37191196 29.47767971 8.37519099 25.01507568 8.38118172 C21.59569848 8.38478743 18.17633564 8.3836487 14.75695801 8.38105392 C13.11104322 8.38038468 11.46512715 8.38121298 9.81921387 8.38353348 C7.52283247 8.38606018 5.22654979 8.38221919 2.93017578 8.37663269 C0.96612793 8.3754393 0.96612793 8.3754393 -1.03759766 8.3742218 C-3.96044922 8.24723816 -3.96044922 8.24723816 -4.96044922 7.24723816 C-5.14794922 4.80973816 -5.14794922 4.80973816 -4.96044922 2.24723816 C-2.96044922 0.24723816 -2.96044922 0.24723816 0 0 Z " fill="#414142" transform="translate(51.96044921875,28.752761840820313)"/>
<path d="M0 0 C1.17461792 -0.00630432 2.34923584 -0.01260864 3.55944824 -0.019104 C5.47038269 -0.01303131 5.47038269 -0.01303131 7.41992188 -0.00683594 C8.72191528 -0.00874939 10.02390869 -0.01066284 11.36535645 -0.01263428 C14.12268816 -0.01558485 16.87989036 -0.01129018 19.63720703 -0.00195312 C23.17494261 0.00944153 26.71237474 0.00288168 30.25009918 -0.00909805 C33.61923121 -0.01805488 36.98828121 -0.01178734 40.35742188 -0.00683594 C41.63137817 -0.0108844 42.90533447 -0.01493286 44.21789551 -0.019104 C45.39251343 -0.01279968 46.56713135 -0.00649536 47.77734375 0 C48.81499878 0.00159119 49.85265381 0.00318237 50.92175293 0.00482178 C53.38867188 0.25878906 53.38867188 0.25878906 55.38867188 2.25878906 C55.70117188 4.75878906 55.70117188 4.75878906 55.38867188 7.25878906 C51.97721987 9.5330904 50.76175923 9.51131428 46.75561523 9.51757812 C45.6010936 9.52388245 44.44657196 9.53018677 43.25706482 9.53668213 C41.38668297 9.53060944 41.38668297 9.53060944 39.47851562 9.52441406 C38.20013321 9.52632751 36.92175079 9.52824097 35.60462952 9.5302124 C32.90026345 9.53157444 30.19625798 9.52887837 27.49194336 9.51953125 C24.02261578 9.50812535 20.55359726 9.51470562 17.08428097 9.52667618 C13.77818133 9.53563128 10.47211929 9.52936627 7.16601562 9.52441406 C5.29259743 9.53048676 5.29259743 9.53048676 3.3813324 9.53668213 C1.65427818 9.52722565 1.65427818 9.52722565 -0.10766602 9.51757812 C-1.63297691 9.51519135 -1.63297691 9.51519135 -3.18910217 9.51275635 C-5.61132812 9.25878906 -5.61132812 9.25878906 -7.61132812 7.25878906 C-7.86132812 4.75878906 -7.86132812 4.75878906 -7.61132812 2.25878906 C-4.95524059 -0.39729848 -3.70827953 0.00568644 0 0 Z " fill="#464643" transform="translate(55.611328125,84.7412109375)"/>
<path d="M0 0 C5.33260386 4.47820876 9.8753827 10.83173411 11.0625 17.8125 C11.84003458 29.68485486 10.9660831 39.43599481 3.15234375 48.76953125 C-4.45851483 56.20967898 -13.60319191 59.17442962 -24.0625 59.125 C-24.75214844 59.14111328 -25.44179688 59.15722656 -26.15234375 59.17382812 C-30.61001801 59.17808976 -33.36142646 58.47768688 -36.9375 55.8125 C-38.68756271 54.06243729 -38.09229753 51.61756209 -38.11450195 49.23876953 C-38.12733719 48.04728302 -38.14017242 46.85579651 -38.15339661 45.62820435 C-38.16078354 44.33035004 -38.16817047 43.03249573 -38.17578125 41.6953125 C-38.17985678 41.03802029 -38.1839323 40.38072807 -38.18813133 39.70351791 C-38.20900718 36.22471173 -38.22330233 32.74594517 -38.23266602 29.26708984 C-38.2437348 25.66983696 -38.27813446 22.07320198 -38.31783772 18.47616768 C-38.34395808 15.71380446 -38.35235368 12.95158948 -38.35594749 10.18911362 C-38.36319946 8.21754923 -38.38965865 6.24608595 -38.41633606 4.27468872 C-38.41341049 3.07689789 -38.41048492 1.87910706 -38.4074707 0.64501953 C-38.41333694 -0.41119598 -38.41920319 -1.4674115 -38.42524719 -2.55563354 C-37.9375 -5.1875 -37.9375 -5.1875 -36.0275116 -7.00857544 C-25.09351013 -13.17617896 -9.30064651 -6.60096221 0 0 Z M-34.9375 -4.1875 C-34.9375 14.9525 -34.9375 34.0925 -34.9375 53.8125 C-26.13446481 57.58522937 -20.44911666 57.8715205 -11.421875 54.84375 C-1.97163788 50.92101006 3.41841513 44.94196948 7.4375 35.625 C9.31529066 24.17047698 8.33362537 15.04055832 2.4375 5.0625 C-6.20750517 -3.1275049 -17.22404578 -6.55519008 -29 -6.48828125 C-31.3817485 -6.21930164 -31.3817485 -6.21930164 -34.9375 -4.1875 Z " fill="#0F73FE" transform="translate(473.9375,53.1875)"/>
<path d="M0 0 C6.69834146 -0.31139669 11.60099442 0.49866088 17.8125 2.9375 C19.27682315 3.48966385 20.74165095 4.04049161 22.20703125 4.58984375 C22.8410083 4.83597412 23.47498535 5.08210449 24.12817383 5.33569336 C26.06495008 6.02305063 27.99979484 6.53270377 30 7 C30 7.99 30 8.98 30 10 C28.81921875 10.40992188 27.6384375 10.81984375 26.421875 11.2421875 C24.86453448 11.78631853 23.3072455 12.3305971 21.75 12.875 C20.97269531 13.14441406 20.19539063 13.41382813 19.39453125 13.69140625 C18.26337891 14.08779297 18.26337891 14.08779297 17.109375 14.4921875 C16.41811523 14.73308105 15.72685547 14.97397461 15.01464844 15.22216797 C12.96012721 15.96748636 12.96012721 15.96748636 10.97753906 17.08642578 C8.01002898 18.45734217 5.21652072 18.12371234 2 18 C-0.10359712 14.5352518 -0.10359712 14.5352518 0.375 12.0625 C0.58125 11.381875 0.7875 10.70125 1 10 C0.979375 9.154375 0.95875 8.30875 0.9375 7.4375 C1 5 1 5 3 2 C2.01 1.67 1.02 1.34 0 1 C0 0.67 0 0.34 0 0 Z " fill="#FBDCC9" transform="translate(355,6)"/>
<path d="M0 0 C14.02528978 2.55005269 14.02528978 2.55005269 18 7 C21.92277954 13.46104865 21.77888223 19.64000049 21 27 C18.44654732 32.59795396 13.93121622 36.46111148 8.5 39.3125 C6 40 6 40 0 40 C0 26.8 0 13.6 0 0 Z M3 4 C3 14.89 3 25.78 3 37 C9.06829022 35.78634196 12.32965599 33.98635504 16.3125 29.25 C19.06978232 23.93967849 19.72627647 19.46631134 17.9375 13.8125 C16.08457115 9.55327893 13.92260592 7.48934607 10 5 C7.69 4.67 5.38 4.34 3 4 Z " fill="#0870FF" transform="translate(450,59)"/>
<path d="M0 0 C2.91517292 1.07401108 4.77810176 1.77810176 7 4 C7.226875 4.721875 7.45375 5.44375 7.6875 6.1875 C9.03617041 9.07750802 10.26714665 10.34986288 12.5625 12.5 C15.3981736 15.18859509 16.87644455 16.92267023 17 21 C13.12506344 22.07637127 11.47547073 21.94566951 8 20 C8.01160156 20.78246094 8.02320313 21.56492187 8.03515625 22.37109375 C8.04417969 23.38300781 8.05320312 24.39492187 8.0625 25.4375 C8.07410156 26.44683594 8.08570313 27.45617187 8.09765625 28.49609375 C8 31 8 31 7 32 C4.5 32.125 4.5 32.125 2 32 C1.67 31.67 1.34 31.34 1 31 C1.0643113 29.20512995 1.20139986 27.41261222 1.375 25.625 C1.46523438 24.64789063 1.55546875 23.67078125 1.6484375 22.6640625 C2 20 2 20 3 17 C3.22451458 14.77425665 3.40782878 12.54418481 3.5625 10.3125 C3.64628906 9.13300781 3.73007812 7.95351563 3.81640625 6.73828125 C3.87699219 5.83464844 3.93757813 4.93101563 4 4 C3.34 4 2.68 4 2 4 C1.34 2.68 0.68 1.36 0 0 Z " fill="#EDB360" transform="translate(503,43)"/>
<path d="M0 0 C6.69834146 -0.31139669 11.60099442 0.49866088 17.8125 2.9375 C19.27682315 3.48966385 20.74165095 4.04049161 22.20703125 4.58984375 C22.8410083 4.83597412 23.47498535 5.08210449 24.12817383 5.33569336 C26.06495008 6.02305063 27.99979484 6.53270377 30 7 C30 7.99 30 8.98 30 10 C27.69 10.33 25.38 10.66 23 11 C23 10.01 23 9.02 23 8 C15.74 8 8.48 8 1 8 C2 4 2 4 3 2 C2.01 1.67 1.02 1.34 0 1 C0 0.67 0 0.34 0 0 Z " fill="#EDB991" transform="translate(355,6)"/>
<path d="M0 0 C6.20078583 0.29341258 9.72320933 3.40025658 14.375 7.125 C15.09171875 7.681875 15.8084375 8.23875 16.546875 8.8125 C18.72064407 10.51541657 20.86421972 12.24972564 23 14 C23.75442383 14.61069336 24.50884766 15.22138672 25.28613281 15.85058594 C26.00897461 16.45418945 26.73181641 17.05779297 27.4765625 17.6796875 C28.12963379 18.22093262 28.78270508 18.76217773 29.45556641 19.31982422 C31.1876729 21.2041677 31.60978003 22.50000435 32 25 C29.69921875 24.79296875 29.69921875 24.79296875 27 24 C25.33203125 21.92578125 25.33203125 21.92578125 23.8125 19.3125 C18.34354158 11.00822474 10.35376524 7.57567449 1 5 C0.67 3.35 0.34 1.7 0 0 Z " fill="#1B1D20" transform="translate(455,41)"/>
<path d="M0 0 C8.48305085 7.01483051 8.48305085 7.01483051 11 11 C10.75 13.3125 10.75 13.3125 10 15 C6.08393425 14.46599103 3.60661066 13.80330533 0 12 C0 8.04 0 4.08 0 0 Z " fill="#47474B" transform="translate(509,50)"/>
<path d="M0 0 C7.54290017 -0.4946164 13.058915 1.09382609 20 4 C20 4.33 20 4.66 20 5 C13.62694402 5.74507544 7.41688675 6.10349817 1 6 C1.66 4.68 2.32 3.36 3 2 C2.01 1.67 1.02 1.34 0 1 C0 0.67 0 0.34 0 0 Z " fill="#D6A48E" transform="translate(355,6)"/>
<path d="M0 0 C-15.3971853 7.86395622 -15.3971853 7.86395622 -23 7 C-23.66 5.68 -24.32 4.36 -25 3 C-21.77176021 2.49389097 -18.54227635 1.99620093 -15.3125 1.5 C-14.40048828 1.35691406 -13.48847656 1.21382812 -12.54882812 1.06640625 C-11.21948242 0.86337891 -11.21948242 0.86337891 -9.86328125 0.65625 C-9.05157471 0.53056641 -8.23986816 0.40488281 -7.40356445 0.27539062 C-4.91466595 -0.00977723 -2.50293311 -0.04674739 0 0 Z " fill="#F3C8A3" transform="translate(380,17)"/>
<path d="M0 0 C5.22134967 1.68926019 9.42387514 4.38605755 12.26953125 9.10546875 C13.24314726 11.04926043 14.15516989 12.99725567 15 15 C14.01 15 13.02 15 12 15 C10.859375 13.42578125 10.859375 13.42578125 9.75 11.3125 C7.16527096 6.84653086 4.2521929 4.83479527 0 2 C0 1.34 0 0.68 0 0 Z " fill="#086CF2" transform="translate(467,50)"/>
<path d="M0 0 C0.96070434 2.88211302 1.10581883 4.69850044 1.0625 7.6875 C1.05347656 8.49574219 1.04445313 9.30398437 1.03515625 10.13671875 C1.02355469 10.75160156 1.01195312 11.36648437 1 12 C1.99 12 2.98 12 4 12 C4 10.35 4 8.7 4 7 C4.33 7 4.66 7 5 7 C5.04254356 8.99954746 5.04080783 11.00041636 5 13 C4 14 4 14 1.5 14.125 C-1 14 -1 14 -2 13 C-1.93588312 11.1843265 -1.79902523 9.3709514 -1.625 7.5625 C-1.53476562 6.57378906 -1.44453125 5.58507812 -1.3515625 4.56640625 C-1 2 -1 2 0 0 Z " fill="#F5CA88" transform="translate(506,61)"/>
<path d="M0 0 C2.31 0.33 4.62 0.66 7 1 C7 1.99 7 2.98 7 4 C4.69 4.33 2.38 4.66 0 5 C0 3.35 0 1.7 0 0 Z " fill="#4D4B49" transform="translate(378,12)"/>
<path d="M0 0 C2.475 0.99 2.475 0.99 5 2 C5 7.28 5 12.56 5 18 C4.34 17.67 3.68 17.34 3 17 C3.33 12.71 3.66 8.42 4 4 C3.34 4 2.68 4 2 4 C1.34 2.68 0.68 1.36 0 0 Z " fill="#B88E62" transform="translate(503,43)"/>
<path d="M0 0 C0 0.33 0 0.66 0 1 C-1.0725 1.2475 -2.145 1.495 -3.25 1.75 C-7.04588722 3.01529574 -8.39623817 4.1069313 -11 7 C-11.66 7 -12.32 7 -13 7 C-10.30332745 0.48304134 -6.81821784 -0.39335872 0 0 Z " fill="#707070" transform="translate(270,73)"/>
<path d="M0 0 C0.99 0.33 1.98 0.66 3 1 C3.33 3.31 3.66 5.62 4 8 C3.01 8 2.02 8 1 8 C0.67 5.36 0.34 2.72 0 0 Z " fill="#F5AD4B" transform="translate(506,65)"/>
<path d="M0 0 C4.455 0.99 4.455 0.99 9 2 C5.3558226 4.4294516 3.28758728 4.16179575 -1 4 C-0.67 2.68 -0.34 1.36 0 0 Z " fill="#EFE8E7" transform="translate(357,16)"/>
</svg>
