<?xml version="1.0" standalone="no"?>
<!DOCTYPE svg PUBLIC "-//W3C//DTD SVG 20010904//EN"
 "http://www.w3.org/TR/2001/REC-SVG-20010904/DTD/svg10.dtd">
<svg version="1.0" xmlns="http://www.w3.org/2000/svg"
 width="791.000000pt" height="531.000000pt" viewBox="0 0 791.000000 531.000000"
 preserveAspectRatio="xMidYMid meet">
<metadata>
Created by potrace 1.16, written by Peter Selinger 2001-2019
</metadata>
<g transform="translate(0.000000,531.000000) scale(0.100000,-0.100000)"
fill="#000000" stroke="none">
<path d="M3470 5263 c-8 -3 -82 -33 -165 -65 -82 -33 -164 -64 -181 -69 -59
-17 -59 -33 -1 -57 122 -49 218 -83 226 -80 11 4 185 170 194 185 11 17 -25
93 -43 92 -8 0 -22 -3 -30 -6z"/>
<path d="M2858 5041 c-31 -21 -150 -75 -265 -121 -361 -144 -355 -140 -683
-449 -85 -80 -193 -182 -239 -226 -46 -44 -92 -87 -101 -95 -76 -67 -300 -297
-300 -307 0 -29 31 -73 51 -73 26 0 167 53 416 156 111 46 206 84 212 84 6 0
18 -14 27 -32 9 -17 63 -103 121 -191 l104 -160 60 7 c33 3 69 11 81 17 18 10
20 9 15 -7 -52 -161 -50 -152 -51 -354 -1 -217 7 -263 69 -397 45 -98 85 -154
179 -252 117 -121 228 -191 381 -242 l70 -23 775 -7 c696 -5 781 -8 834 -23
202 -59 326 -185 377 -381 23 -86 23 -120 3 -199 -51 -197 -175 -327 -366
-383 l-80 -23 -1048 0 c-715 0 -1058 -3 -1077 -11 -34 -12 -90 -64 -109 -101
-9 -17 -14 -58 -14 -108 l0 -80 42 -46 c74 -80 -29 -74 1195 -74 1048 0 1102
1 1185 20 185 41 284 96 434 245 210 208 284 399 271 702 -10 256 -81 421
-258 604 -82 85 -160 141 -262 189 -162 78 -111 74 -982 80 l-780 5 -75 29
c-144 55 -232 131 -291 251 -78 159 -78 278 -1 434 68 140 183 229 350 272 72
18 120 19 1129 19 l1053 0 46 42 c61 56 74 85 74 162 0 76 -11 110 -48 149
-62 66 18 61 -1120 67 l-1033 5 32 43 c17 24 32 53 32 66 0 13 -51 103 -113
199 -78 124 -110 182 -105 194 4 10 56 63 116 118 60 55 109 105 109 111 0 6
-44 28 -97 49 -54 21 -122 48 -152 61 -77 34 -124 31 -193 -15z"/>
<path d="M3121 3617 c-13 -6 -33 -24 -44 -39 -18 -24 -19 -32 -8 -68 22 -75
-38 -71 967 -68 l896 3 24 28 c25 30 31 75 14 108 -27 50 -4 49 -947 49 -677
0 -884 -3 -902 -13z"/>
<path d="M3133 3143 c-28 -5 -73 -58 -73 -84 0 -32 26 -74 55 -87 19 -9 211
-12 755 -12 l728 0 31 26 c51 42 41 118 -19 149 -25 13 -124 15 -742 14 -392
-1 -723 -4 -735 -6z"/>
<path d="M3127 2179 c-9 -5 -24 -24 -33 -40 -12 -25 -13 -37 -4 -65 23 -68
-23 -64 788 -64 l733 0 24 25 c35 34 35 96 0 130 l-24 25 -733 0 c-479 -1
-739 -4 -751 -11z"/>
<path d="M2775 1685 c-36 -35 -35 -97 1 -130 l27 -25 894 0 c989 0 944 -3 961
63 5 19 5 43 -1 60 -20 60 32 57 -955 57 l-903 0 -24 -25z"/>
</g>
</svg>
