<?xml version="1.0" standalone="no"?>
<!DOCTYPE svg PUBLIC "-//W3C//DTD SVG 20010904//EN"
 "http://www.w3.org/TR/2001/REC-SVG-20010904/DTD/svg10.dtd">
<svg version="1.0" xmlns="http://www.w3.org/2000/svg"
 width="4096.000000pt" height="1366.000000pt" viewBox="0 0 4096.000000 1366.000000"
 preserveAspectRatio="xMidYMid meet">
<metadata>
Created by potrace 1.16, written by Peter Selinger 2001-2019
</metadata>
<g transform="translate(0.000000,1366.000000) scale(0.100000,-0.100000)"
fill="#000000" stroke="none">
<path d="M10730 11684 c-1044 -62 -1982 -419 -2785 -1059 -711 -567 -1252
-1329 -1552 -2185 -364 -1037 -364 -2183 0 -3220 496 -1416 1633 -2532 3060
-3004 497 -165 973 -240 1522 -240 438 0 783 41 1180 141 346 86 632 192 960
353 637 313 1184 750 1634 1304 109 134 253 333 322 445 l44 71 8720 0 c5834
0 8760 4 8840 10 488 42 948 228 1310 532 438 366 719 849 822 1413 23 128 25
171 30 503 7 501 -16 696 -118 1007 -169 514 -532 971 -1004 1265 -191 119
-493 241 -715 289 -257 55 427 51 -9105 51 l-8774 0 -48 77 c-75 120 -215 314
-324 449 -591 727 -1371 1267 -2252 1558 -322 107 -698 186 -1047 221 -150 15
-588 27 -720 19z m710 -1088 c710 -94 1345 -362 1900 -802 147 -117 434 -397
548 -536 533 -647 836 -1429 871 -2250 29 -678 -106 -1307 -404 -1893 -195
-383 -395 -657 -709 -971 -602 -602 -1342 -964 -2211 -1081 -102 -13 -202 -17
-460 -17 -360 0 -452 8 -741 64 -1017 200 -1925 828 -2475 1713 -380 610 -571
1283 -571 2007 0 1038 401 1991 1143 2715 642 626 1439 988 2359 1069 114 10
631 -3 750 -18z m15715 -2456 c390 -44 730 -211 953 -468 l53 -60 -218 -190
-217 -189 -44 48 c-104 116 -283 223 -457 274 -96 28 -246 38 -370 23 l-60 -7
-190 226 c-104 124 -191 229 -193 233 -4 9 161 63 258 84 160 35 323 44 485
26z m-5653 -760 c186 -393 452 -953 590 -1245 139 -291 253 -533 255 -537 2
-5 -135 -8 -305 -8 l-309 0 -311 648 c-170 356 -365 762 -432 902 -67 140
-125 259 -129 263 -7 7 -40 -60 -215 -427 -33 -72 -196 -411 -361 -755 l-301
-626 -307 -3 c-169 -1 -307 1 -307 6 0 4 108 235 241 512 300 629 243 511 605
1270 168 355 315 662 325 683 l20 37 300 -2 301 -3 340 -715z m-2442 445 l0
-245 -1380 0 -1380 0 0 245 0 245 1380 0 1380 0 0 -245z m5370 217 c254 -68
430 -221 519 -452 151 -391 -29 -849 -391 -996 -27 -10 -48 -23 -48 -29 0 -5
168 -226 373 -490 l373 -480 -355 -3 c-196 -1 -361 0 -367 2 -7 3 -157 212
-335 465 l-324 461 -587 0 -588 0 0 245 0 244 748 3 747 3 58 23 c196 80 248
314 100 454 -15 15 -55 39 -88 55 l-60 28 -752 3 -753 3 0 245 0 245 823 -4
c814 -3 823 -3 907 -25z m4750 -217 l0 -245 -295 0 -295 0 0 245 0 245 295 0
295 0 0 -245z m1695 -411 c308 -361 745 -873 970 -1137 226 -264 449 -526 497
-582 l87 -102 -326 -8 c-266 -5 -328 -4 -338 7 -13 13 -956 1134 -1268 1507
-93 111 -173 201 -178 201 -5 0 -9 -338 -9 -855 l0 -855 -290 0 -290 0 0 1240
0 1240 293 0 292 0 560 -656z m1565 -246 c0 -756 -2 -900 -13 -888 -54 59
-528 592 -550 618 l-27 34 0 569 0 569 295 0 295 0 0 -902z m-6206 408 l176
-208 -23 -30 c-147 -195 -195 -339 -184 -548 7 -126 25 -198 77 -305 115 -237
331 -377 627 -407 291 -29 533 60 740 270 l82 84 215 -187 215 -188 -45 -53
c-144 -168 -416 -344 -646 -418 -179 -58 -268 -71 -483 -71 -173 0 -214 3
-304 23 -562 126 -953 499 -1062 1012 -29 139 -32 391 -6 524 26 129 63 239
114 341 60 120 119 202 222 308 68 70 87 85 97 75 7 -7 91 -107 188 -222z
m-8264 -1191 l0 -795 -290 0 -290 0 0 795 0 795 290 0 290 0 0 -795z m11210 0
l0 -795 -295 0 -295 0 0 795 0 795 295 0 295 0 0 -795z"/>
<path d="M8652 8692 l3 -457 32 -66 c39 -80 111 -150 191 -187 l57 -27 668 -3
667 -3 0 -172 0 -172 -110 -52 -111 -52 -74 65 c-46 40 -82 64 -97 64 -32 0
-338 -306 -338 -339 0 -12 21 -45 47 -74 95 -105 90 -84 45 -174 -22 -43 -52
-117 -67 -164 l-27 -86 -96 -7 c-66 -5 -103 -13 -114 -23 -16 -14 -18 -39 -18
-238 0 -266 -8 -251 130 -262 l95 -8 36 -100 c20 -55 49 -125 65 -155 16 -30
30 -58 32 -61 1 -3 -27 -41 -63 -83 -36 -42 -65 -87 -65 -98 0 -24 290 -323
322 -334 22 -7 58 15 132 80 l56 49 73 -36 c39 -20 89 -43 110 -51 l37 -15 0
-641 0 -641 653 3 652 3 57 27 c76 35 148 104 184 175 l29 58 0 1910 c0 1793
-1 1917 -18 2030 -42 277 -113 537 -192 698 l-38 77 -1474 0 -1474 0 3 -458z
m1618 -1567 c0 -41 -3 -75 -7 -75 -21 0 -132 -114 -175 -179 -69 -105 -100
-210 -102 -336 0 -55 5 -125 13 -155 32 -130 118 -265 217 -343 l54 -42 0 -73
0 -73 -31 18 c-59 35 -144 109 -192 168 -65 82 -102 149 -140 258 -29 86 -31
101 -31 227 0 111 4 149 23 215 33 113 95 226 171 308 61 66 171 157 191 157
5 0 9 -34 9 -75z"/>
<path d="M11790 9145 c0 -3 11 -27 24 -53 128 -255 206 -603 231 -1034 l7
-108 522 0 c369 0 533 3 557 12 53 18 87 45 116 96 l28 47 3 523 3 522 -746 0
c-410 0 -745 -2 -745 -5z"/>
<path d="M17247 3996 c-222 -62 -301 -352 -140 -513 68 -68 122 -88 238 -88
85 0 107 4 143 23 135 72 201 228 158 374 -20 71 -87 147 -160 183 -65 32
-169 41 -239 21z m156 -120 c76 -28 117 -91 117 -181 0 -62 -14 -97 -57 -137
-72 -68 -187 -64 -255 8 -35 38 -48 74 -48 135 0 133 120 219 243 175z"/>
<path d="M17970 3996 c-96 -25 -186 -108 -216 -198 -37 -111 0 -255 83 -329
69 -60 109 -74 218 -74 110 0 155 15 225 74 34 29 35 30 15 45 -11 8 -34 23
-51 32 -30 17 -33 16 -85 -9 -91 -46 -176 -33 -236 36 -73 83 -64 208 19 271
69 52 155 54 234 5 41 -25 43 -25 94 13 l43 32 -43 38 c-74 66 -197 92 -300
64z"/>
<path d="M22687 4000 c-95 -24 -166 -81 -208 -166 -42 -84 -45 -180 -9 -262
30 -68 112 -144 181 -167 111 -37 270 -4 339 69 l24 27 -29 24 c-47 38 -63 40
-121 10 -143 -72 -297 27 -281 182 14 139 153 207 285 139 l53 -27 44 26 c24
14 46 29 50 34 8 13 -52 61 -112 88 -58 27 -158 37 -216 23z"/>
<path d="M27257 3996 c-58 -16 -94 -41 -125 -87 -20 -29 -23 -44 -20 -96 6
-104 52 -136 237 -169 97 -17 131 -36 131 -74 0 -10 -10 -28 -22 -39 -44 -42
-137 -40 -220 3 -27 14 -59 26 -71 26 -23 0 -77 -46 -77 -66 0 -17 86 -69 148
-89 82 -27 214 -18 276 19 107 63 127 199 41 275 -38 33 -65 42 -205 68 -85
16 -96 21 -110 46 -14 27 -14 29 13 53 37 31 123 33 192 4 64 -27 76 -26 116
16 33 35 34 36 14 51 -49 37 -170 74 -238 72 -18 0 -54 -6 -80 -13z"/>
<path d="M31625 3997 c-104 -35 -184 -113 -211 -205 -62 -211 84 -402 305
-402 91 0 151 22 215 81 72 65 100 129 100 229 1 129 -60 222 -183 278 -65 30
-167 38 -226 19z m190 -139 c109 -74 114 -235 9 -314 -50 -39 -126 -44 -189
-14 -112 54 -135 221 -42 308 58 54 159 64 222 20z"/>
<path d="M15130 3788 c0 -193 2 -217 21 -258 43 -94 119 -140 234 -140 93 0
138 14 186 57 78 71 84 91 87 323 4 233 5 230 -80 230 l-48 0 0 -187 c0 -163
-3 -194 -19 -230 -32 -70 -120 -95 -188 -53 -58 35 -63 57 -63 275 l0 195 -65
0 -65 0 0 -212z"/>
<path d="M15820 3700 l0 -300 60 0 60 0 0 193 0 192 114 -173 c63 -96 122
-182 132 -193 14 -15 31 -19 91 -19 40 0 73 2 73 4 0 11 -383 563 -402 579
-14 11 -37 17 -74 17 l-54 0 0 -300z"/>
<path d="M16230 3815 l0 -186 60 -81 60 -82 0 267 0 267 -60 0 -60 0 0 -185z"/>
<path d="M16490 3700 l0 -300 206 0 205 0 23 53 23 52 -163 3 -164 2 0 235 c0
266 4 255 -84 255 l-46 0 0 -300z"/>
<path d="M18400 3700 l0 -300 70 0 70 0 0 300 0 300 -70 0 -70 0 0 -300z"/>
<path d="M18704 3883 c-59 -65 -119 -130 -132 -145 l-24 -26 127 -156 128
-156 80 0 80 0 -19 23 c-11 12 -71 82 -133 155 l-114 133 25 27 c51 57 194
218 212 240 l19 22 -70 0 -71 0 -108 -117z"/>
<path d="M19180 3940 l0 -60 100 0 100 0 0 -240 0 -240 65 0 65 0 0 240 0 240
83 0 c94 0 102 5 130 78 l17 42 -280 0 -280 0 0 -60z"/>
<path d="M19820 3700 l0 -300 65 0 65 0 0 300 0 300 -65 0 -65 0 0 -300z"/>
<path d="M20210 3880 l0 -120 -83 0 c-94 0 -102 -5 -129 -77 l-16 -43 114 0
114 0 0 -120 0 -120 70 0 70 0 0 283 c0 327 3 317 -88 317 l-52 0 0 -120z"/>
<path d="M20480 3940 l0 -60 216 0 c120 0 223 4 233 10 17 9 51 76 51 100 0 6
-93 10 -250 10 l-250 0 0 -60z"/>
<path d="M21250 3940 l0 -60 100 0 100 0 0 -240 0 -240 65 0 65 0 0 240 0 239
87 3 c85 3 87 4 104 33 10 17 21 42 24 58 l7 27 -276 0 -276 0 0 -60z"/>
<path d="M21860 3940 l0 -60 216 0 c120 0 223 4 233 10 17 9 51 76 51 100 0 6
-93 10 -250 10 l-250 0 0 -60z"/>
<path d="M23110 3700 l0 -300 65 0 65 0 0 300 0 300 -65 0 -65 0 0 -300z"/>
<path d="M23500 3880 l0 -120 -82 0 c-46 0 -88 -4 -95 -8 -6 -4 -21 -31 -32
-60 l-21 -52 115 0 115 0 0 -120 0 -120 70 0 70 0 0 278 c0 327 1 322 -86 322
l-54 0 0 -120z"/>
<path d="M23962 3777 l3 -224 30 -49 c19 -30 49 -60 79 -79 47 -28 55 -30 151
-30 96 0 104 2 151 30 30 19 60 49 79 79 l30 49 3 209 c3 152 0 213 -8 224 -8
9 -32 14 -66 14 l-54 0 0 -190 c0 -214 -7 -246 -62 -280 -68 -41 -159 -16
-191 53 -14 29 -17 68 -17 226 l0 191 -66 0 -65 0 3 -223z"/>
<path d="M24650 3700 l0 -300 60 0 60 0 0 192 0 192 128 -189 127 -190 82 -3
82 -3 -190 278 c-105 153 -202 288 -216 301 -19 17 -36 22 -79 22 l-54 0 0
-300z"/>
<path d="M25060 3818 l0 -183 58 -82 c31 -45 60 -82 65 -83 4 0 7 119 7 265
l0 265 -65 0 -65 0 0 -182z"/>
<path d="M25320 3700 l0 -300 204 0 c224 0 212 -3 239 68 l17 42 -165 0 -165
0 0 233 c0 168 -3 236 -12 245 -7 7 -36 12 -65 12 l-53 0 0 -300z"/>
<path d="M25880 3940 l0 -60 223 0 c122 0 227 4 234 8 10 6 53 94 53 108 0 2
-115 4 -255 4 l-255 0 0 -60z"/>
<path d="M26553 3702 l-121 -297 66 -3 c41 -2 68 1 72 8 4 7 45 108 90 226 46
117 86 212 89 209 4 -2 45 -103 91 -224 l85 -221 72 0 c71 0 72 0 64 23 -123
309 -225 545 -242 560 -15 12 -39 17 -83 17 l-61 0 -122 -298z"/>
<path d="M27700 3700 l0 -300 65 0 65 0 0 300 0 300 -65 0 -65 0 0 -300z"/>
<path d="M28100 3893 c0 -60 -4 -113 -8 -120 -5 -7 -40 -13 -92 -15 l-85 -3
-27 -55 -27 -55 120 -3 119 -3 0 -119 0 -120 65 0 65 0 0 284 c0 325 2 316
-81 316 l-49 0 0 -107z"/>
<path d="M28510 3940 l0 -60 100 0 100 0 0 -240 0 -240 65 0 65 0 0 240 0 240
83 0 c52 0 89 5 99 13 12 10 48 85 48 102 0 3 -126 5 -280 5 l-280 0 0 -60z"/>
<path d="M29150 3700 l0 -300 65 0 65 0 0 300 0 300 -65 0 -65 0 0 -300z"/>
<path d="M29548 3883 l-3 -118 -90 -5 -90 -5 -22 -45 c-35 -71 -37 -70 92 -70
l115 0 0 -120 0 -120 65 0 65 0 0 290 c0 328 5 310 -84 310 l-45 0 -3 -117z"/>
<path d="M29810 3940 l0 -60 223 0 c251 0 239 -3 270 78 l17 42 -255 0 -255 0
0 -60z"/>
<path d="M30590 3992 c0 -7 105 -483 125 -569 5 -21 11 -23 69 -23 39 0 67 5
73 13 5 6 24 64 42 127 18 63 42 147 53 185 l21 70 56 -195 56 -195 64 -3 c57
-3 63 -1 58 15 -2 10 -32 110 -65 223 -34 113 -68 231 -77 264 -23 78 -42 96
-104 96 l-48 0 -54 -189 c-30 -104 -56 -188 -58 -185 -2 2 -20 86 -40 186
l-37 183 -67 3 c-37 2 -67 -1 -67 -6z"/>
<path d="M31192 3837 l-32 -163 31 -99 c26 -85 49 -137 49 -112 0 6 52 241
109 500 l9 37 -67 0 -67 0 -32 -163z"/>
<path d="M32140 3956 c0 -70 16 -76 187 -76 130 0 145 -2 163 -20 27 -27 26
-81 -1 -106 -19 -17 -40 -19 -185 -22 l-164 -3 0 -165 0 -164 65 0 65 0 0 110
0 111 68 -3 67 -3 55 -105 55 -105 73 -3 c39 -2 72 0 72 3 0 3 -27 55 -60 116
-33 60 -60 113 -60 117 0 4 15 17 34 29 39 25 76 95 76 144 -1 77 -63 158
-138 179 -20 5 -112 10 -204 10 l-168 0 0 -44z"/>
<path d="M32750 3700 l0 -300 209 0 209 0 21 49 c11 27 21 52 21 55 0 3 -72 6
-160 6 l-160 0 0 228 c0 265 1 262 -88 262 l-52 0 0 -300z"/>
<path d="M33320 3701 l0 -301 65 0 65 0 0 240 0 240 70 0 c100 0 154 -29 192
-104 15 -30 19 -53 16 -92 -7 -88 -68 -152 -160 -169 -43 -8 -49 -14 -72 -74
l-17 -43 88 4 c133 7 217 58 270 166 24 48 28 69 27 132 -1 91 -19 135 -80
200 -74 79 -120 94 -306 98 l-158 4 0 -301z"/>
<path d="M20480 3695 l0 -55 169 0 c185 0 177 -3 204 68 l17 42 -195 0 -195 0
0 -55z"/>
<path d="M21860 3695 l0 -55 173 2 172 3 22 45 c12 25 22 48 23 53 0 4 -88 7
-195 7 l-195 0 0 -55z"/>
<path d="M25880 3695 l0 -55 168 0 c149 0 171 2 184 18 15 19 38 67 38 82 0 6
-78 10 -195 10 l-195 0 0 -55z"/>
<path d="M29810 3695 l0 -55 172 2 172 3 17 30 c9 17 20 40 24 53 l6 22 -195
0 -196 0 0 -55z"/>
<path d="M20480 3455 l0 -55 232 2 233 3 12 25 c6 14 15 37 18 53 l7 27 -251
0 -251 0 0 -55z"/>
<path d="M21860 3455 l0 -55 229 0 c251 0 237 -4 263 68 l16 42 -254 0 -254 0
0 -55z"/>
<path d="M25880 3455 l0 -55 235 0 235 0 14 33 c7 19 17 43 20 55 l7 22 -255
0 -256 0 0 -55z"/>
<path d="M29810 3455 l0 -55 229 0 c252 0 240 -3 265 68 l15 42 -254 0 -255 0
0 -55z"/>
</g>
</svg>
