<?xml version="1.0" standalone="no"?>
<!DOCTYPE svg PUBLIC "-//W3C//DTD SVG 20010904//EN"
 "http://www.w3.org/TR/2001/REC-SVG-20010904/DTD/svg10.dtd">
<svg version="1.0" xmlns="http://www.w3.org/2000/svg"
 width="1123.000000pt" height="433.000000pt" viewBox="0 0 1123.000000 433.000000"
 preserveAspectRatio="xMidYMid meet">
<metadata>
Created by potrace 1.16, written by Peter Selinger 2001-2019
</metadata>
<g transform="translate(0.000000,433.000000) scale(0.100000,-0.100000)"
fill="#000000" stroke="none">
<path d="M4270 3251 c-2736 -6 -2898 -7 -2954 -24 -234 -70 -444 -290 -491
-513 -19 -90 -19 -262 1 -344 57 -244 276 -460 521 -514 61 -14 157 -16 630
-16 470 0 568 -2 618 -15 151 -40 251 -139 291 -290 17 -63 17 -117 0 -180
-39 -147 -130 -240 -277 -286 -57 -18 -106 -19 -875 -19 -894 0 -844 3 -898
-60 -22 -27 -26 -41 -26 -97 0 -63 2 -67 39 -104 l39 -39 884 0 c981 0 924 -4
1063 68 98 50 257 210 303 305 56 115 75 212 70 352 -9 206 -68 335 -221 481
-97 94 -188 145 -308 174 -79 19 -118 20 -649 20 -608 0 -601 0 -708 54 -91
46 -154 127 -187 240 -47 161 35 359 183 439 114 62 -126 57 3202 57 l3035 -1
205 69 c113 37 214 73 224 79 21 12 31 7 -204 89 -74 25 -153 53 -175 61 -56
20 -49 20 -3335 14z"/>
<path d="M9290 3175 c-19 -23 -6 -42 140 -200 72 -77 130 -148 130 -158 0 -10
-36 -65 -80 -124 -44 -58 -80 -111 -80 -116 0 -6 11 -30 25 -54 29 -49 34 -47
-83 -33 -92 12 -186 0 -234 -28 -58 -34 -58 -31 -58 -612 0 -588 -1 -579 64
-619 74 -46 252 -50 400 -9 225 62 399 239 450 458 27 113 18 288 -20 412 -5
16 -2 16 43 3 26 -8 53 -15 60 -15 6 0 51 52 99 115 48 63 91 115 96 115 4 0
53 -22 107 -50 54 -27 101 -46 104 -43 4 3 5 -20 4 -51 -2 -37 -8 -60 -17 -67
-13 -8 -13 -11 1 -22 12 -9 16 -25 13 -59 -2 -26 1 -50 6 -53 5 -3 6 -13 3
-23 -6 -15 -5 -15 10 -3 19 15 22 66 7 105 -6 18 -6 34 2 51 9 19 9 28 0 37
-17 17 -15 58 3 58 9 0 46 -15 84 -34 67 -34 68 -34 84 -15 10 10 17 21 17 24
0 13 -209 233 -216 227 -5 -4 -2 1 5 11 21 27 0 60 -61 95 -34 21 -90 72 -158
148 -58 64 -128 134 -156 155 -58 45 -746 389 -776 389 -3 0 -11 -7 -18 -15z
m137 -725 c68 -13 70 -14 103 -24 34 -10 112 -44 130 -57 8 -5 23 -12 33 -15
9 -4 17 -10 17 -15 0 -5 4 -9 10 -9 21 0 115 -99 151 -161 57 -96 81 -191 80
-321 -1 -204 -54 -336 -187 -463 -113 -109 -289 -168 -479 -160 -118 5 -161
18 -186 58 -19 31 -19 51 -17 579 3 533 4 548 23 567 38 37 189 47 322 21z"/>
<path d="M9325 1989 c3 -123 5 -296 5 -385 l0 -161 57 9 c130 20 255 112 309
226 23 48 28 71 28 147 1 90 -15 165 -41 196 -7 8 -13 20 -13 26 0 6 -23 31
-50 56 -58 51 -158 93 -242 103 l-58 7 5 -224z m202 146 c125 -61 166 -136
167 -305 1 -95 -2 -110 -26 -155 -50 -95 -166 -179 -267 -192 l-38 -5 -6 152
c-4 84 -7 243 -7 353 l0 200 53 -7 c28 -4 84 -22 124 -41z"/>
<path d="M1422 2780 c-28 -27 -28 -61 1 -88 l23 -22 688 0 687 0 24 26 c31 34
31 49 0 79 l-24 25 -689 0 c-679 0 -689 0 -710 -20z"/>
<path d="M7362 2053 c4 -455 4 -470 26 -527 33 -89 65 -138 127 -194 83 -77
217 -132 317 -132 l38 0 0 180 0 179 -37 7 c-90 16 -120 53 -130 159 l-6 65
82 0 81 0 0 180 0 180 -80 0 -80 0 0 185 0 185 -171 0 -170 0 3 -467z"/>
<path d="M8187 2510 c-56 -10 -90 -29 -114 -67 -17 -25 -18 -69 -18 -583 0
-514 2 -558 19 -592 34 -69 51 -73 396 -76 195 -2 315 0 333 7 15 6 36 25 47
43 40 65 16 218 -38 247 -13 7 -100 11 -231 11 l-211 0 0 90 0 90 191 0 191 0
28 28 c34 34 54 102 45 151 -10 55 -43 117 -68 128 -13 6 -92 8 -204 5 l-183
-5 0 107 0 106 209 0 c238 0 245 2 276 85 34 87 7 190 -56 222 -28 15 -530 16
-612 3z m634 -53 c17 -27 20 -45 16 -111 -6 -119 2 -116 -273 -116 l-224 0 0
-134 0 -135 205 1 c225 2 223 2 243 -58 15 -47 10 -136 -11 -167 l-17 -27
-210 0 -210 0 0 -120 0 -120 228 0 c125 0 232 -4 238 -8 28 -18 39 -67 35
-159 -1 -30 -8 -49 -23 -63 -23 -21 -30 -21 -333 -18 -340 3 -356 6 -385 63
-13 26 -15 109 -15 576 0 606 -2 591 64 609 60 16 77 17 369 18 l283 1 20 -32z"/>
<path d="M3958 2436 c-21 -8 -65 -30 -99 -50 -68 -41 -89 -45 -89 -16 0 10 -5
31 -12 45 -9 21 -18 25 -52 25 -48 0 -195 -25 -244 -41 -33 -11 -34 -12 -27
-53 20 -128 25 -245 25 -661 0 -345 3 -464 12 -473 16 -16 304 -17 313 -2 4 6
6 86 5 177 l-1 165 28 -5 c15 -3 60 -17 98 -31 246 -90 504 64 565 336 18 81
8 238 -19 310 -31 79 -100 170 -163 213 -99 67 -249 94 -340 61z m295 -84
c117 -63 197 -220 197 -386 0 -111 -48 -240 -116 -316 -35 -39 -161 -110 -193
-110 -9 1 5 9 30 19 112 44 186 124 230 252 31 88 31 237 0 323 -42 117 -99
184 -200 234 -25 12 -35 19 -21 16 14 -3 47 -18 73 -32z m-206 -202 c18 -10
45 -38 60 -61 25 -38 28 -52 28 -123 0 -97 -22 -149 -75 -178 -42 -22 -129
-24 -169 -3 -106 54 -132 236 -48 332 17 19 40 39 51 43 39 16 119 11 153 -10z"/>
<path d="M1422 2410 c-27 -26 -28 -64 -2 -90 20 -20 33 -20 588 -20 l569 0 21
23 c28 30 28 58 -1 85 l-23 22 -565 0 c-555 0 -566 0 -587 -20z"/>
<path d="M5578 2166 c-120 -35 -230 -122 -281 -222 -66 -130 -80 -289 -39
-421 44 -141 166 -259 313 -304 92 -28 243 -23 331 10 187 72 300 245 300 461
0 216 -112 389 -300 461 -72 27 -251 36 -324 15z m395 -98 c117 -74 187 -215
187 -378 0 -118 -38 -229 -104 -307 -37 -43 -114 -96 -156 -108 -14 -4 2 9 35
29 74 45 117 92 155 171 81 166 54 397 -62 528 -18 20 -60 53 -93 73 -33 20
-49 33 -35 29 14 -4 46 -21 73 -37z m-161 -203 c20 -14 46 -44 59 -71 46 -96
19 -226 -59 -279 -48 -33 -129 -35 -178 -4 -87 53 -117 196 -62 290 38 64 79
89 148 89 43 0 64 -6 92 -25z"/>
<path d="M4735 2119 c-55 -10 -114 -18 -131 -19 -16 0 -38 -6 -47 -12 -15 -12
-15 -18 0 -73 12 -47 17 -139 22 -432 3 -204 10 -375 14 -380 10 -9 312 -11
322 -2 3 4 6 119 5 257 0 225 1 251 17 271 24 30 84 42 168 35 53 -4 74 -3 82
8 6 8 12 80 14 178 l4 165 -61 0 c-51 0 -74 -7 -146 -43 -47 -23 -91 -42 -96
-42 -12 0 -22 24 -22 55 0 36 -10 55 -29 54 -9 -1 -61 -10 -116 -20z"/>
<path d="M6314 2098 c-23 -37 -36 -140 -41 -323 -9 -319 15 -437 105 -515 53
-47 121 -70 206 -70 69 1 137 25 233 83 80 49 89 48 96 -9 2 -25 10 -51 16
-57 16 -16 293 -16 312 0 12 9 14 86 14 455 l0 443 -170 0 -170 0 -5 -277 c-6
-315 -5 -312 -93 -356 -57 -29 -114 -23 -159 17 -25 23 -31 37 -40 106 -6 48
-7 148 -3 250 4 94 8 190 8 215 l2 45 -152 3 c-110 2 -154 -1 -159 -10z m898
-445 l-3 -408 -27 -6 c-39 -9 -172 -8 -202 1 -16 5 18 8 91 9 l117 1 -1 363
c0 336 5 447 21 447 4 0 6 -183 4 -407z"/>
<path d="M1439 1671 c-16 -16 -29 -35 -29 -41 0 -6 13 -25 29 -41 l30 -29 556
2 557 3 19 24 c10 13 19 31 19 41 0 10 -9 28 -19 41 l-19 24 -557 3 -556 2
-30 -29z"/>
<path d="M1205 1321 c-36 -15 -58 -48 -51 -75 14 -57 4 -57 747 -54 l681 3 19
24 c24 29 24 53 0 82 l-19 24 -679 2 c-373 1 -687 -2 -698 -6z"/>
</g>
</svg>
